<svg width="148" height="34" viewBox="0 0 148 34" fill="none" xmlns="http://www.w3.org/2000/svg">
    <path
        d="M13.243 10.3888C9.35017 6.60116 12.0316 0 17.463 0C22.8944 0 25.5758 6.60116 21.683 10.3888L17.463 14.4947L13.243 10.3888Z"
        fill="#CBEA7B" />
    <path
        d="M13.2675 23.6112C9.37465 27.3988 12.0561 34 17.4875 34C22.9189 34 25.6003 27.3988 21.7075 23.6112L17.4875 19.5053L13.2675 23.6112Z"
        fill="#CBEA7B" />
    <path
        d="M10.8637 21.2321C7.07616 25.1249 0.474998 22.4434 0.474998 17.012C0.474998 11.5807 7.07616 8.89919 10.8638 12.792L14.9697 17.012L10.8637 21.2321Z"
        fill="#CBEA7B" />
    <path
        d="M24.0862 21.2075C27.8738 25.1003 34.475 22.4189 34.475 16.9875C34.475 11.5561 27.8738 8.87465 24.0862 12.7674L19.9803 16.9875L24.0862 21.2075Z"
        fill="#CBEA7B" />
    <path
        d="M49.5851 19.601V11.05H52.1691V22.95H48.4461L43.2271 14.416H42.9381V22.95H40.3541V11.05H43.8391V11.067H44.0771L49.2791 19.601H49.5851Z"
        fill="white" />
    <path
        d="M61.5701 13.413H64.1541V22.95H61.5701V21.556H61.4511C60.8391 22.406 59.9721 22.95 58.2551 22.95C54.2261 22.95 54.1241 19.584 54.1241 18.19V13.413H56.6911V18.19C56.6911 18.938 56.5211 20.74 59.0031 20.74C61.2301 20.74 61.5701 19.312 61.5701 18.02V13.413Z"
        fill="white" />
    <path
        d="M69.6281 15.623V19.006V19.21C69.6281 20.587 70.2401 20.4 72.7221 20.264V22.78C72.7221 22.78 72.2121 22.95 69.6281 22.95C67.0271 22.95 67.0271 20.825 67.0271 19.448V15.623H65.7691V13.447H67.0271V10.693H69.6281V13.447H72.7221V15.623H69.6281Z"
        fill="white" />
    <path
        d="M80.0002 13.413C80.6802 13.413 81.2412 13.566 81.6832 13.668L81.2752 16.099C81.0372 16.031 80.3742 15.895 79.5582 15.895C77.6372 15.895 77.0762 17.391 77.0762 18.683V22.95H74.4922V13.413H77.0762V14.824H77.2292C77.7732 13.906 78.3512 13.413 80.0002 13.413Z"
        fill="white" />
    <path d="M85.6329 22.95H83.0659V13.481H85.6329V22.95ZM85.6329 12.801H83.0659V10.489H85.6329V12.801Z" fill="white" />
    <path
        d="M91.2652 15.623V19.006V19.21C91.2652 20.587 91.8772 20.4 94.3592 20.264V22.78C94.3592 22.78 93.8492 22.95 91.2652 22.95C88.6642 22.95 88.6642 20.825 88.6642 19.448V15.623H87.4062V13.447H88.6642V10.693H91.2652V13.447H94.3592V15.623H91.2652Z"
        fill="white" />
    <path d="M98.6465 22.95H96.0795V13.481H98.6465V22.95ZM98.6465 12.801H96.0795V10.489H98.6465V12.801Z" fill="white" />
    <path
        d="M105.724 13.243C108.631 13.243 111.045 14.79 111.045 18.105C111.045 21.454 108.631 22.95 105.724 22.95C102.834 22.95 100.42 21.403 100.42 18.105C100.42 14.824 102.834 13.243 105.724 13.243ZM105.724 20.604C107.356 20.604 108.512 19.822 108.512 18.105C108.512 16.337 107.356 15.606 105.724 15.606C104.109 15.606 102.953 16.303 102.953 18.105C102.953 19.89 104.109 20.604 105.724 20.604Z"
        fill="white" />
    <path
        d="M118.678 13.413C122.707 13.413 122.809 16.796 122.809 18.19V22.95H120.242V18.19C120.242 17.442 120.395 15.64 117.93 15.64C115.686 15.64 115.363 17.068 115.363 18.36V22.95H112.779V13.413H115.363V14.824H115.482C116.094 13.974 116.961 13.413 118.678 13.413Z"
        fill="white" />
    <path d="M127.323 22.95H124.756V13.481H127.323V22.95ZM127.323 12.801H124.756V10.489H127.323V12.801Z" fill="white" />
    <path
        d="M133.996 17.17C136.155 17.493 138.603 17.867 138.603 20.128C138.603 22.491 136.903 22.95 133.979 22.95C131.82 22.95 130.341 22.559 129.576 21.794C128.913 21.131 128.913 20.332 128.93 19.839V19.652H131.582V19.737C131.582 20.553 132.194 20.927 133.911 20.927C134.948 20.927 135.934 20.791 135.934 20.162C135.934 19.448 135.016 19.312 133.979 19.193C133.843 19.176 133.707 19.159 133.571 19.142C130.834 18.785 129.134 18.173 129.134 16.269C129.134 14.943 129.899 13.362 133.571 13.362C137.515 13.362 138.348 15.113 138.348 16.575V16.66H135.713V16.575C135.713 15.827 135.067 15.419 133.571 15.419C132.126 15.419 131.82 15.946 131.82 16.235C131.82 16.66 132.109 16.898 133.775 17.153L133.996 17.17Z"
        fill="white" />
    <path
        d="M143.654 15.623V19.006V19.21C143.654 20.587 144.266 20.4 146.748 20.264V22.78C146.748 22.78 146.238 22.95 143.654 22.95C141.053 22.95 141.053 20.825 141.053 19.448V15.623H139.795V13.447H141.053V10.693H143.654V13.447H146.748V15.623H143.654Z"
        fill="white" />
</svg>