<svg width="148" height="34" viewBox="0 0 148 34" fill="none" xmlns="http://www.w3.org/2000/svg">
    <path
        d="M12.9101 10.3888C9.01735 6.60116 11.6988 0 17.1302 0C22.5615 0 25.243 6.60116 21.3502 10.3888L17.1302 14.4947L12.9101 10.3888Z"
        fill="#CBEA7B" />
    <path
        d="M12.9346 23.6112C9.04182 27.3988 11.7233 34 17.1547 34C22.586 34 25.2675 27.3988 21.3747 23.6112L17.1547 19.5053L12.9346 23.6112Z"
        fill="#CBEA7B" />
    <path
        d="M10.5305 21.2321C6.74289 25.1249 0.141724 22.4434 0.141724 17.012C0.141724 11.5807 6.74289 8.89919 10.5305 12.792L14.6365 17.012L10.5305 21.2321Z"
        fill="#CBEA7B" />
    <path
        d="M23.753 21.2075C27.5406 25.1003 34.1417 22.4189 34.1417 16.9875C34.1417 11.5561 27.5406 8.87465 23.753 12.7674L19.647 16.9875L23.753 21.2075Z"
        fill="#CBEA7B" />
    <path
        d="M49.2518 19.601V11.05H51.8358V22.95H48.1128L42.8938 14.416H42.6048V22.95H40.0208V11.05H43.5058V11.067H43.7438L48.9458 19.601H49.2518Z"
        fill="white" />
    <path
        d="M61.2368 13.413H63.8208V22.95H61.2368V21.556H61.1178C60.5058 22.406 59.6388 22.95 57.9218 22.95C53.8928 22.95 53.7908 19.584 53.7908 18.19V13.413H56.3578V18.19C56.3578 18.938 56.1878 20.74 58.6698 20.74C60.8968 20.74 61.2368 19.312 61.2368 18.02V13.413Z"
        fill="white" />
    <path
        d="M69.2948 15.623V19.006V19.21C69.2948 20.587 69.9068 20.4 72.3888 20.264V22.78C72.3888 22.78 71.8788 22.95 69.2948 22.95C66.6938 22.95 66.6938 20.825 66.6938 19.448V15.623H65.4358V13.447H66.6938V10.693H69.2948V13.447H72.3888V15.623H69.2948Z"
        fill="white" />
    <path
        d="M79.6669 13.413C80.3469 13.413 80.9079 13.566 81.3499 13.668L80.9419 16.099C80.7039 16.031 80.0409 15.895 79.2249 15.895C77.3039 15.895 76.7429 17.391 76.7429 18.683V22.95H74.1589V13.413H76.7429V14.824H76.8959C77.4399 13.906 78.0179 13.413 79.6669 13.413Z"
        fill="white" />
    <path d="M85.2996 22.95H82.7326V13.481H85.2996V22.95ZM85.2996 12.801H82.7326V10.489H85.2996V12.801Z" fill="white" />
    <path
        d="M90.932 15.623V19.006V19.21C90.932 20.587 91.544 20.4 94.026 20.264V22.78C94.026 22.78 93.516 22.95 90.932 22.95C88.331 22.95 88.331 20.825 88.331 19.448V15.623H87.073V13.447H88.331V10.693H90.932V13.447H94.026V15.623H90.932Z"
        fill="white" />
    <path d="M98.3133 22.95H95.7463V13.481H98.3133V22.95ZM98.3133 12.801H95.7463V10.489H98.3133V12.801Z" fill="white" />
    <path
        d="M105.391 13.243C108.298 13.243 110.712 14.79 110.712 18.105C110.712 21.454 108.298 22.95 105.391 22.95C102.501 22.95 100.087 21.403 100.087 18.105C100.087 14.824 102.501 13.243 105.391 13.243ZM105.391 20.604C107.023 20.604 108.179 19.822 108.179 18.105C108.179 16.337 107.023 15.606 105.391 15.606C103.776 15.606 102.62 16.303 102.62 18.105C102.62 19.89 103.776 20.604 105.391 20.604Z"
        fill="white" />
    <path
        d="M118.344 13.413C122.373 13.413 122.475 16.796 122.475 18.19V22.95H119.908V18.19C119.908 17.442 120.061 15.64 117.596 15.64C115.352 15.64 115.029 17.068 115.029 18.36V22.95H112.445V13.413H115.029V14.824H115.148C115.76 13.974 116.627 13.413 118.344 13.413Z"
        fill="white" />
    <path d="M126.989 22.95H124.422V13.481H126.989V22.95ZM126.989 12.801H124.422V10.489H126.989V12.801Z" fill="white" />
    <path
        d="M133.663 17.17C135.822 17.493 138.27 17.867 138.27 20.128C138.27 22.491 136.57 22.95 133.646 22.95C131.487 22.95 130.008 22.559 129.243 21.794C128.58 21.131 128.58 20.332 128.597 19.839V19.652H131.249V19.737C131.249 20.553 131.861 20.927 133.578 20.927C134.615 20.927 135.601 20.791 135.601 20.162C135.601 19.448 134.683 19.312 133.646 19.193C133.51 19.176 133.374 19.159 133.238 19.142C130.501 18.785 128.801 18.173 128.801 16.269C128.801 14.943 129.566 13.362 133.238 13.362C137.182 13.362 138.015 15.113 138.015 16.575V16.66H135.38V16.575C135.38 15.827 134.734 15.419 133.238 15.419C131.793 15.419 131.487 15.946 131.487 16.235C131.487 16.66 131.776 16.898 133.442 17.153L133.663 17.17Z"
        fill="white" />
    <path
        d="M143.321 15.623V19.006V19.21C143.321 20.587 143.933 20.4 146.415 20.264V22.78C146.415 22.78 145.905 22.95 143.321 22.95C140.72 22.95 140.72 20.825 140.72 19.448V15.623H139.462V13.447H140.72V10.693H143.321V13.447H146.415V15.623H143.321Z"
        fill="white" />
</svg>